<svg xmlns="http://www.w3.org/2000/svg" xmlns:xlink="http://www.w3.org/1999/xlink" width="1018" zoomAndPan="magnify" viewBox="0 0 763.5 381.749991" height="509" preserveAspectRatio="xMidYMid meet" version="1.0"><defs><g/><clipPath id="1f0a226409"><path d="M 0 0 L 763 0 L 763 381.5 L 0 381.5 Z M 0 0 " clip-rule="nonzero"/></clipPath><clipPath id="dc866fe5fc"><path d="M 0 0 L 763 0 L 763 380.957031 L 0 380.957031 Z M 0 0 " clip-rule="nonzero"/></clipPath><clipPath id="4d6590ae23"><path d="M 38.226562 0 L 724.050781 0 C 734.1875 0 743.910156 4.027344 751.078125 11.195312 C 758.25 18.363281 762.273438 28.085938 762.273438 38.226562 L 762.273438 342.730469 C 762.273438 352.871094 758.25 362.59375 751.078125 369.761719 C 743.910156 376.929688 734.1875 380.957031 724.050781 380.957031 L 38.226562 380.957031 C 28.085938 380.957031 18.363281 376.929688 11.195312 369.761719 C 4.027344 362.59375 0 352.871094 0 342.730469 L 0 38.226562 C 0 28.085938 4.027344 18.363281 11.195312 11.195312 C 18.363281 4.027344 28.085938 0 38.226562 0 Z M 38.226562 0 " clip-rule="nonzero"/></clipPath><clipPath id="63a6783ddb"><path d="M 0 0 L 762 0 L 762 380.957031 L 0 380.957031 Z M 0 0 " clip-rule="nonzero"/></clipPath><clipPath id="7da4378969"><path d="M 38.226562 0 L 724.050781 0 C 734.1875 0 743.910156 4.027344 751.078125 11.195312 C 758.25 18.363281 762.273438 28.085938 762.273438 38.226562 L 762.273438 342.730469 C 762.273438 352.871094 758.25 362.59375 751.078125 369.761719 C 743.910156 376.929688 734.1875 380.957031 724.050781 380.957031 L 38.226562 380.957031 C 28.085938 380.957031 18.363281 376.929688 11.195312 369.761719 C 4.027344 362.59375 0 352.871094 0 342.730469 L 0 38.226562 C 0 28.085938 4.027344 18.363281 11.195312 11.195312 C 18.363281 4.027344 28.085938 0 38.226562 0 Z M 38.226562 0 " clip-rule="nonzero"/></clipPath><clipPath id="e07aa1a056"><rect x="0" width="763" y="0" height="381"/></clipPath><clipPath id="26cd0c776d"><path d="M 213.726562 38.695312 L 716.601562 38.695312 L 716.601562 342.246094 L 213.726562 342.246094 Z M 213.726562 38.695312 " clip-rule="nonzero"/></clipPath><clipPath id="57ac42c482"><path d="M 716.71875 113.628906 L 716.71875 267.324219 C 716.71875 308.707031 683.167969 342.257812 641.78125 342.257812 L 288.664062 342.257812 C 247.277344 342.257812 213.726562 308.707031 213.726562 267.324219 L 213.726562 113.628906 C 213.726562 72.246094 247.277344 38.695312 288.664062 38.695312 L 641.78125 38.695312 C 683.167969 38.695312 716.71875 72.246094 716.71875 113.628906 Z M 716.71875 113.628906 " clip-rule="nonzero"/></clipPath><linearGradient x1="-0.000000134641" gradientTransform="matrix(5.06143, 0, 0, 5.06143, 0.0618759, -0.0000176889)" y1="40.009998" x2="132.558999" gradientUnits="userSpaceOnUse" y2="40.009998" id="2f3e95ce34"><stop stop-opacity="1" stop-color="rgb(54.899597%, 32.159424%, 100%)" offset="0"/><stop stop-opacity="1" stop-color="rgb(54.684448%, 32.325745%, 99.760437%)" offset="0.00390625"/><stop stop-opacity="1" stop-color="rgb(54.470825%, 32.493591%, 99.520874%)" offset="0.0078125"/><stop stop-opacity="1" stop-color="rgb(54.255676%, 32.659912%, 99.281311%)" offset="0.0117188"/><stop stop-opacity="1" stop-color="rgb(54.042053%, 32.826233%, 99.043274%)" offset="0.015625"/><stop stop-opacity="1" stop-color="rgb(53.826904%, 32.992554%, 98.803711%)" offset="0.0195312"/><stop stop-opacity="1" stop-color="rgb(53.613281%, 33.1604%, 98.565674%)" offset="0.0234375"/><stop stop-opacity="1" stop-color="rgb(53.398132%, 33.326721%, 98.326111%)" offset="0.0273438"/><stop stop-opacity="1" stop-color="rgb(53.184509%, 33.494568%, 98.088074%)" offset="0.03125"/><stop stop-opacity="1" stop-color="rgb(52.96936%, 33.660889%, 97.848511%)" offset="0.0351562"/><stop stop-opacity="1" stop-color="rgb(52.755737%, 33.828735%, 97.610474%)" offset="0.0390625"/><stop stop-opacity="1" stop-color="rgb(52.540588%, 33.995056%, 97.370911%)" offset="0.0429688"/><stop stop-opacity="1" stop-color="rgb(52.326965%, 34.162903%, 97.131348%)" offset="0.046875"/><stop stop-opacity="1" stop-color="rgb(52.111816%, 34.329224%, 96.891785%)" offset="0.0507812"/><stop stop-opacity="1" stop-color="rgb(51.898193%, 34.495544%, 96.653748%)" offset="0.0546875"/><stop stop-opacity="1" stop-color="rgb(51.683044%, 34.661865%, 96.414185%)" offset="0.0585938"/><stop stop-opacity="1" stop-color="rgb(51.469421%, 34.829712%, 96.176147%)" offset="0.0625"/><stop stop-opacity="1" stop-color="rgb(51.254272%, 34.996033%, 95.936584%)" offset="0.0664062"/><stop stop-opacity="1" stop-color="rgb(51.040649%, 35.163879%, 95.698547%)" offset="0.0703125"/><stop stop-opacity="1" stop-color="rgb(50.8255%, 35.3302%, 95.458984%)" offset="0.0742188"/><stop stop-opacity="1" stop-color="rgb(50.611877%, 35.498047%, 95.220947%)" offset="0.078125"/><stop stop-opacity="1" stop-color="rgb(50.396729%, 35.664368%, 94.981384%)" offset="0.0820312"/><stop stop-opacity="1" stop-color="rgb(50.183105%, 35.830688%, 94.743347%)" offset="0.0859375"/><stop stop-opacity="1" stop-color="rgb(49.967957%, 35.997009%, 94.503784%)" offset="0.0898438"/><stop stop-opacity="1" stop-color="rgb(49.752808%, 36.164856%, 94.264221%)" offset="0.09375"/><stop stop-opacity="1" stop-color="rgb(49.537659%, 36.331177%, 94.024658%)" offset="0.0976562"/><stop stop-opacity="1" stop-color="rgb(49.324036%, 36.499023%, 93.786621%)" offset="0.101562"/><stop stop-opacity="1" stop-color="rgb(49.108887%, 36.665344%, 93.547058%)" offset="0.105469"/><stop stop-opacity="1" stop-color="rgb(48.895264%, 36.833191%, 93.309021%)" offset="0.109375"/><stop stop-opacity="1" stop-color="rgb(48.680115%, 36.999512%, 93.069458%)" offset="0.113281"/><stop stop-opacity="1" stop-color="rgb(48.466492%, 37.167358%, 92.831421%)" offset="0.117188"/><stop stop-opacity="1" stop-color="rgb(48.251343%, 37.333679%, 92.591858%)" offset="0.121094"/><stop stop-opacity="1" stop-color="rgb(48.03772%, 37.5%, 92.353821%)" offset="0.125"/><stop stop-opacity="1" stop-color="rgb(47.822571%, 37.666321%, 92.114258%)" offset="0.128906"/><stop stop-opacity="1" stop-color="rgb(47.608948%, 37.834167%, 91.876221%)" offset="0.132812"/><stop stop-opacity="1" stop-color="rgb(47.393799%, 38.000488%, 91.636658%)" offset="0.136719"/><stop stop-opacity="1" stop-color="rgb(47.180176%, 38.168335%, 91.397095%)" offset="0.140625"/><stop stop-opacity="1" stop-color="rgb(46.965027%, 38.334656%, 91.157532%)" offset="0.144531"/><stop stop-opacity="1" stop-color="rgb(46.751404%, 38.502502%, 90.919495%)" offset="0.148437"/><stop stop-opacity="1" stop-color="rgb(46.536255%, 38.668823%, 90.679932%)" offset="0.152344"/><stop stop-opacity="1" stop-color="rgb(46.322632%, 38.835144%, 90.441895%)" offset="0.15625"/><stop stop-opacity="1" stop-color="rgb(46.107483%, 39.001465%, 90.202332%)" offset="0.160156"/><stop stop-opacity="1" stop-color="rgb(45.89386%, 39.169312%, 89.964294%)" offset="0.164062"/><stop stop-opacity="1" stop-color="rgb(45.678711%, 39.335632%, 89.724731%)" offset="0.167969"/><stop stop-opacity="1" stop-color="rgb(45.465088%, 39.503479%, 89.486694%)" offset="0.171875"/><stop stop-opacity="1" stop-color="rgb(45.249939%, 39.6698%, 89.247131%)" offset="0.175781"/><stop stop-opacity="1" stop-color="rgb(45.036316%, 39.837646%, 89.009094%)" offset="0.179688"/><stop stop-opacity="1" stop-color="rgb(44.821167%, 40.003967%, 88.769531%)" offset="0.183594"/><stop stop-opacity="1" stop-color="rgb(44.607544%, 40.171814%, 88.529968%)" offset="0.1875"/><stop stop-opacity="1" stop-color="rgb(44.392395%, 40.338135%, 88.290405%)" offset="0.191406"/><stop stop-opacity="1" stop-color="rgb(44.178772%, 40.504456%, 88.052368%)" offset="0.195313"/><stop stop-opacity="1" stop-color="rgb(43.963623%, 40.670776%, 87.812805%)" offset="0.199219"/><stop stop-opacity="1" stop-color="rgb(43.75%, 40.838623%, 87.574768%)" offset="0.203125"/><stop stop-opacity="1" stop-color="rgb(43.534851%, 41.004944%, 87.335205%)" offset="0.207031"/><stop stop-opacity="1" stop-color="rgb(43.321228%, 41.172791%, 87.097168%)" offset="0.210938"/><stop stop-opacity="1" stop-color="rgb(43.106079%, 41.339111%, 86.857605%)" offset="0.214844"/><stop stop-opacity="1" stop-color="rgb(42.892456%, 41.506958%, 86.619568%)" offset="0.21875"/><stop stop-opacity="1" stop-color="rgb(42.677307%, 41.673279%, 86.380005%)" offset="0.222656"/><stop stop-opacity="1" stop-color="rgb(42.463684%, 41.8396%, 86.141968%)" offset="0.226562"/><stop stop-opacity="1" stop-color="rgb(42.248535%, 42.00592%, 85.902405%)" offset="0.230469"/><stop stop-opacity="1" stop-color="rgb(42.034912%, 42.173767%, 85.662842%)" offset="0.234375"/><stop stop-opacity="1" stop-color="rgb(41.819763%, 42.340088%, 85.423279%)" offset="0.238281"/><stop stop-opacity="1" stop-color="rgb(41.60614%, 42.507935%, 85.185242%)" offset="0.242188"/><stop stop-opacity="1" stop-color="rgb(41.390991%, 42.674255%, 84.945679%)" offset="0.246094"/><stop stop-opacity="1" stop-color="rgb(41.177368%, 42.842102%, 84.707642%)" offset="0.25"/><stop stop-opacity="1" stop-color="rgb(40.962219%, 43.008423%, 84.468079%)" offset="0.253906"/><stop stop-opacity="1" stop-color="rgb(40.748596%, 43.17627%, 84.230042%)" offset="0.257812"/><stop stop-opacity="1" stop-color="rgb(40.533447%, 43.34259%, 83.990479%)" offset="0.261719"/><stop stop-opacity="1" stop-color="rgb(40.319824%, 43.508911%, 83.752441%)" offset="0.265625"/><stop stop-opacity="1" stop-color="rgb(40.104675%, 43.675232%, 83.512878%)" offset="0.269531"/><stop stop-opacity="1" stop-color="rgb(39.891052%, 43.843079%, 83.274841%)" offset="0.273438"/><stop stop-opacity="1" stop-color="rgb(39.675903%, 44.009399%, 83.035278%)" offset="0.277344"/><stop stop-opacity="1" stop-color="rgb(39.46228%, 44.177246%, 82.795715%)" offset="0.28125"/><stop stop-opacity="1" stop-color="rgb(39.247131%, 44.343567%, 82.556152%)" offset="0.285156"/><stop stop-opacity="1" stop-color="rgb(39.033508%, 44.511414%, 82.318115%)" offset="0.289062"/><stop stop-opacity="1" stop-color="rgb(38.818359%, 44.677734%, 82.078552%)" offset="0.292969"/><stop stop-opacity="1" stop-color="rgb(38.604736%, 44.844055%, 81.840515%)" offset="0.296875"/><stop stop-opacity="1" stop-color="rgb(38.389587%, 45.010376%, 81.600952%)" offset="0.300781"/><stop stop-opacity="1" stop-color="rgb(38.175964%, 45.178223%, 81.362915%)" offset="0.304687"/><stop stop-opacity="1" stop-color="rgb(37.960815%, 45.344543%, 81.123352%)" offset="0.308594"/><stop stop-opacity="1" stop-color="rgb(37.747192%, 45.51239%, 80.885315%)" offset="0.3125"/><stop stop-opacity="1" stop-color="rgb(37.532043%, 45.678711%, 80.645752%)" offset="0.316406"/><stop stop-opacity="1" stop-color="rgb(37.31842%, 45.846558%, 80.407715%)" offset="0.320312"/><stop stop-opacity="1" stop-color="rgb(37.103271%, 46.012878%, 80.168152%)" offset="0.324219"/><stop stop-opacity="1" stop-color="rgb(36.889648%, 46.180725%, 79.928589%)" offset="0.328125"/><stop stop-opacity="1" stop-color="rgb(36.6745%, 46.347046%, 79.689026%)" offset="0.332031"/><stop stop-opacity="1" stop-color="rgb(36.460876%, 46.513367%, 79.450989%)" offset="0.335937"/><stop stop-opacity="1" stop-color="rgb(36.245728%, 46.679688%, 79.211426%)" offset="0.339844"/><stop stop-opacity="1" stop-color="rgb(36.032104%, 46.847534%, 78.973389%)" offset="0.34375"/><stop stop-opacity="1" stop-color="rgb(35.816956%, 47.013855%, 78.733826%)" offset="0.347656"/><stop stop-opacity="1" stop-color="rgb(35.603333%, 47.181702%, 78.495789%)" offset="0.351562"/><stop stop-opacity="1" stop-color="rgb(35.388184%, 47.348022%, 78.256226%)" offset="0.355469"/><stop stop-opacity="1" stop-color="rgb(35.174561%, 47.515869%, 78.018188%)" offset="0.359375"/><stop stop-opacity="1" stop-color="rgb(34.959412%, 47.68219%, 77.778625%)" offset="0.363281"/><stop stop-opacity="1" stop-color="rgb(34.745789%, 47.848511%, 77.540588%)" offset="0.367187"/><stop stop-opacity="1" stop-color="rgb(34.53064%, 48.014832%, 77.301025%)" offset="0.371094"/><stop stop-opacity="1" stop-color="rgb(34.317017%, 48.182678%, 77.061462%)" offset="0.375"/><stop stop-opacity="1" stop-color="rgb(34.101868%, 48.348999%, 76.821899%)" offset="0.378906"/><stop stop-opacity="1" stop-color="rgb(33.888245%, 48.516846%, 76.583862%)" offset="0.382812"/><stop stop-opacity="1" stop-color="rgb(33.673096%, 48.683167%, 76.344299%)" offset="0.386719"/><stop stop-opacity="1" stop-color="rgb(33.459473%, 48.851013%, 76.106262%)" offset="0.390625"/><stop stop-opacity="1" stop-color="rgb(33.244324%, 49.017334%, 75.866699%)" offset="0.394531"/><stop stop-opacity="1" stop-color="rgb(33.030701%, 49.185181%, 75.628662%)" offset="0.398438"/><stop stop-opacity="1" stop-color="rgb(32.815552%, 49.351501%, 75.389099%)" offset="0.402344"/><stop stop-opacity="1" stop-color="rgb(32.601929%, 49.517822%, 75.151062%)" offset="0.40625"/><stop stop-opacity="1" stop-color="rgb(32.38678%, 49.684143%, 74.911499%)" offset="0.410156"/><stop stop-opacity="1" stop-color="rgb(32.173157%, 49.85199%, 74.673462%)" offset="0.414062"/><stop stop-opacity="1" stop-color="rgb(31.958008%, 50.018311%, 74.433899%)" offset="0.417969"/><stop stop-opacity="1" stop-color="rgb(31.744385%, 50.186157%, 74.194336%)" offset="0.421875"/><stop stop-opacity="1" stop-color="rgb(31.529236%, 50.352478%, 73.954773%)" offset="0.425781"/><stop stop-opacity="1" stop-color="rgb(31.315613%, 50.520325%, 73.716736%)" offset="0.429688"/><stop stop-opacity="1" stop-color="rgb(31.100464%, 50.686646%, 73.477173%)" offset="0.433594"/><stop stop-opacity="1" stop-color="rgb(30.886841%, 50.852966%, 73.239136%)" offset="0.4375"/><stop stop-opacity="1" stop-color="rgb(30.671692%, 51.019287%, 72.999573%)" offset="0.441406"/><stop stop-opacity="1" stop-color="rgb(30.456543%, 51.187134%, 72.761536%)" offset="0.445312"/><stop stop-opacity="1" stop-color="rgb(30.241394%, 51.353455%, 72.521973%)" offset="0.449219"/><stop stop-opacity="1" stop-color="rgb(30.027771%, 51.521301%, 72.283936%)" offset="0.453125"/><stop stop-opacity="1" stop-color="rgb(29.812622%, 51.687622%, 72.044373%)" offset="0.457031"/><stop stop-opacity="1" stop-color="rgb(29.598999%, 51.855469%, 71.806335%)" offset="0.460937"/><stop stop-opacity="1" stop-color="rgb(29.38385%, 52.02179%, 71.566772%)" offset="0.464844"/><stop stop-opacity="1" stop-color="rgb(29.170227%, 52.189636%, 71.327209%)" offset="0.46875"/><stop stop-opacity="1" stop-color="rgb(28.955078%, 52.355957%, 71.087646%)" offset="0.472656"/><stop stop-opacity="1" stop-color="rgb(28.741455%, 52.522278%, 70.849609%)" offset="0.476562"/><stop stop-opacity="1" stop-color="rgb(28.526306%, 52.688599%, 70.610046%)" offset="0.480469"/><stop stop-opacity="1" stop-color="rgb(28.312683%, 52.856445%, 70.372009%)" offset="0.484375"/><stop stop-opacity="1" stop-color="rgb(28.097534%, 53.022766%, 70.132446%)" offset="0.488281"/><stop stop-opacity="1" stop-color="rgb(27.883911%, 53.190613%, 69.894409%)" offset="0.492187"/><stop stop-opacity="1" stop-color="rgb(27.668762%, 53.356934%, 69.654846%)" offset="0.496094"/><stop stop-opacity="1" stop-color="rgb(27.455139%, 53.52478%, 69.416809%)" offset="0.5"/><stop stop-opacity="1" stop-color="rgb(27.23999%, 53.691101%, 69.177246%)" offset="0.503906"/><stop stop-opacity="1" stop-color="rgb(27.026367%, 53.857422%, 68.939209%)" offset="0.507812"/><stop stop-opacity="1" stop-color="rgb(26.811218%, 54.023743%, 68.699646%)" offset="0.511719"/><stop stop-opacity="1" stop-color="rgb(26.597595%, 54.191589%, 68.460083%)" offset="0.515625"/><stop stop-opacity="1" stop-color="rgb(26.382446%, 54.35791%, 68.22052%)" offset="0.519531"/><stop stop-opacity="1" stop-color="rgb(26.168823%, 54.525757%, 67.982483%)" offset="0.523438"/><stop stop-opacity="1" stop-color="rgb(25.953674%, 54.692078%, 67.74292%)" offset="0.527344"/><stop stop-opacity="1" stop-color="rgb(25.740051%, 54.859924%, 67.504883%)" offset="0.53125"/><stop stop-opacity="1" stop-color="rgb(25.524902%, 55.026245%, 67.26532%)" offset="0.535156"/><stop stop-opacity="1" stop-color="rgb(25.311279%, 55.194092%, 67.027283%)" offset="0.539062"/><stop stop-opacity="1" stop-color="rgb(25.09613%, 55.360413%, 66.78772%)" offset="0.542969"/><stop stop-opacity="1" stop-color="rgb(24.882507%, 55.526733%, 66.549683%)" offset="0.546875"/><stop stop-opacity="1" stop-color="rgb(24.667358%, 55.693054%, 66.31012%)" offset="0.550781"/><stop stop-opacity="1" stop-color="rgb(24.453735%, 55.860901%, 66.072083%)" offset="0.554687"/><stop stop-opacity="1" stop-color="rgb(24.238586%, 56.027222%, 65.83252%)" offset="0.558594"/><stop stop-opacity="1" stop-color="rgb(24.024963%, 56.195068%, 65.592957%)" offset="0.5625"/><stop stop-opacity="1" stop-color="rgb(23.809814%, 56.361389%, 65.353394%)" offset="0.566406"/><stop stop-opacity="1" stop-color="rgb(23.596191%, 56.529236%, 65.115356%)" offset="0.570312"/><stop stop-opacity="1" stop-color="rgb(23.381042%, 56.695557%, 64.875793%)" offset="0.574219"/><stop stop-opacity="1" stop-color="rgb(23.167419%, 56.861877%, 64.637756%)" offset="0.578125"/><stop stop-opacity="1" stop-color="rgb(22.952271%, 57.028198%, 64.398193%)" offset="0.582031"/><stop stop-opacity="1" stop-color="rgb(22.738647%, 57.196045%, 64.160156%)" offset="0.585938"/><stop stop-opacity="1" stop-color="rgb(22.523499%, 57.362366%, 63.920593%)" offset="0.589844"/><stop stop-opacity="1" stop-color="rgb(22.309875%, 57.530212%, 63.682556%)" offset="0.59375"/><stop stop-opacity="1" stop-color="rgb(22.094727%, 57.696533%, 63.442993%)" offset="0.597656"/><stop stop-opacity="1" stop-color="rgb(21.881104%, 57.86438%, 63.204956%)" offset="0.601562"/><stop stop-opacity="1" stop-color="rgb(21.665955%, 58.030701%, 62.965393%)" offset="0.605469"/><stop stop-opacity="1" stop-color="rgb(21.452332%, 58.198547%, 62.72583%)" offset="0.609375"/><stop stop-opacity="1" stop-color="rgb(21.237183%, 58.364868%, 62.486267%)" offset="0.613281"/><stop stop-opacity="1" stop-color="rgb(21.02356%, 58.531189%, 62.24823%)" offset="0.617188"/><stop stop-opacity="1" stop-color="rgb(20.808411%, 58.69751%, 62.008667%)" offset="0.621094"/><stop stop-opacity="1" stop-color="rgb(20.594788%, 58.865356%, 61.77063%)" offset="0.625"/><stop stop-opacity="1" stop-color="rgb(20.379639%, 59.031677%, 61.531067%)" offset="0.628906"/><stop stop-opacity="1" stop-color="rgb(20.166016%, 59.199524%, 61.29303%)" offset="0.632812"/><stop stop-opacity="1" stop-color="rgb(19.950867%, 59.365845%, 61.053467%)" offset="0.636719"/><stop stop-opacity="1" stop-color="rgb(19.737244%, 59.533691%, 60.81543%)" offset="0.640625"/><stop stop-opacity="1" stop-color="rgb(19.522095%, 59.700012%, 60.575867%)" offset="0.644531"/><stop stop-opacity="1" stop-color="rgb(19.308472%, 59.866333%, 60.33783%)" offset="0.648438"/><stop stop-opacity="1" stop-color="rgb(19.093323%, 60.032654%, 60.098267%)" offset="0.652344"/><stop stop-opacity="1" stop-color="rgb(18.8797%, 60.2005%, 59.858704%)" offset="0.65625"/><stop stop-opacity="1" stop-color="rgb(18.664551%, 60.366821%, 59.619141%)" offset="0.660156"/><stop stop-opacity="1" stop-color="rgb(18.450928%, 60.534668%, 59.381104%)" offset="0.664062"/><stop stop-opacity="1" stop-color="rgb(18.235779%, 60.700989%, 59.141541%)" offset="0.667969"/><stop stop-opacity="1" stop-color="rgb(18.022156%, 60.868835%, 58.903503%)" offset="0.671875"/><stop stop-opacity="1" stop-color="rgb(17.807007%, 61.035156%, 58.66394%)" offset="0.675781"/><stop stop-opacity="1" stop-color="rgb(17.593384%, 61.203003%, 58.425903%)" offset="0.679688"/><stop stop-opacity="1" stop-color="rgb(17.378235%, 61.369324%, 58.18634%)" offset="0.683594"/><stop stop-opacity="1" stop-color="rgb(17.164612%, 61.535645%, 57.948303%)" offset="0.6875"/><stop stop-opacity="1" stop-color="rgb(16.949463%, 61.701965%, 57.70874%)" offset="0.691406"/><stop stop-opacity="1" stop-color="rgb(16.73584%, 61.869812%, 57.470703%)" offset="0.695312"/><stop stop-opacity="1" stop-color="rgb(16.520691%, 62.036133%, 57.23114%)" offset="0.699219"/><stop stop-opacity="1" stop-color="rgb(16.307068%, 62.203979%, 56.991577%)" offset="0.703125"/><stop stop-opacity="1" stop-color="rgb(16.091919%, 62.3703%, 56.752014%)" offset="0.707031"/><stop stop-opacity="1" stop-color="rgb(15.878296%, 62.538147%, 56.513977%)" offset="0.710938"/><stop stop-opacity="1" stop-color="rgb(15.663147%, 62.704468%, 56.274414%)" offset="0.714844"/><stop stop-opacity="1" stop-color="rgb(15.449524%, 62.870789%, 56.036377%)" offset="0.71875"/><stop stop-opacity="1" stop-color="rgb(15.234375%, 63.037109%, 55.796814%)" offset="0.722656"/><stop stop-opacity="1" stop-color="rgb(15.020752%, 63.204956%, 55.558777%)" offset="0.726562"/><stop stop-opacity="1" stop-color="rgb(14.805603%, 63.371277%, 55.319214%)" offset="0.730469"/><stop stop-opacity="1" stop-color="rgb(14.59198%, 63.539124%, 55.081177%)" offset="0.734375"/><stop stop-opacity="1" stop-color="rgb(14.376831%, 63.705444%, 54.841614%)" offset="0.738281"/><stop stop-opacity="1" stop-color="rgb(14.163208%, 63.873291%, 54.603577%)" offset="0.742188"/><stop stop-opacity="1" stop-color="rgb(13.948059%, 64.039612%, 54.364014%)" offset="0.746094"/><stop stop-opacity="1" stop-color="rgb(13.734436%, 64.207458%, 54.124451%)" offset="0.75"/><stop stop-opacity="1" stop-color="rgb(13.519287%, 64.373779%, 53.884888%)" offset="0.753906"/><stop stop-opacity="1" stop-color="rgb(13.305664%, 64.5401%, 53.646851%)" offset="0.757812"/><stop stop-opacity="1" stop-color="rgb(13.090515%, 64.706421%, 53.407288%)" offset="0.761719"/><stop stop-opacity="1" stop-color="rgb(12.876892%, 64.874268%, 53.16925%)" offset="0.765625"/><stop stop-opacity="1" stop-color="rgb(12.661743%, 65.040588%, 52.929688%)" offset="0.769531"/><stop stop-opacity="1" stop-color="rgb(12.44812%, 65.208435%, 52.69165%)" offset="0.773438"/><stop stop-opacity="1" stop-color="rgb(12.232971%, 65.374756%, 52.452087%)" offset="0.777344"/><stop stop-opacity="1" stop-color="rgb(12.019348%, 65.542603%, 52.21405%)" offset="0.78125"/><stop stop-opacity="1" stop-color="rgb(11.804199%, 65.708923%, 51.974487%)" offset="0.785156"/><stop stop-opacity="1" stop-color="rgb(11.590576%, 65.875244%, 51.734924%)" offset="0.789062"/><stop stop-opacity="1" stop-color="rgb(11.375427%, 66.041565%, 51.495361%)" offset="0.792969"/><stop stop-opacity="1" stop-color="rgb(11.160278%, 66.209412%, 51.257324%)" offset="0.796875"/><stop stop-opacity="1" stop-color="rgb(10.945129%, 66.375732%, 51.017761%)" offset="0.800781"/><stop stop-opacity="1" stop-color="rgb(10.731506%, 66.543579%, 50.779724%)" offset="0.804688"/><stop stop-opacity="1" stop-color="rgb(10.516357%, 66.7099%, 50.540161%)" offset="0.808594"/><stop stop-opacity="1" stop-color="rgb(10.302734%, 66.877747%, 50.302124%)" offset="0.8125"/><stop stop-opacity="1" stop-color="rgb(10.087585%, 67.044067%, 50.062561%)" offset="0.816406"/><stop stop-opacity="1" stop-color="rgb(9.873962%, 67.211914%, 49.824524%)" offset="0.820313"/><stop stop-opacity="1" stop-color="rgb(9.658813%, 67.378235%, 49.584961%)" offset="0.824219"/><stop stop-opacity="1" stop-color="rgb(9.44519%, 67.544556%, 49.346924%)" offset="0.828125"/><stop stop-opacity="1" stop-color="rgb(9.230042%, 67.710876%, 49.107361%)" offset="0.832031"/><stop stop-opacity="1" stop-color="rgb(9.016418%, 67.878723%, 48.867798%)" offset="0.835938"/><stop stop-opacity="1" stop-color="rgb(8.80127%, 68.045044%, 48.628235%)" offset="0.839844"/><stop stop-opacity="1" stop-color="rgb(8.587646%, 68.212891%, 48.390198%)" offset="0.84375"/><stop stop-opacity="1" stop-color="rgb(8.372498%, 68.379211%, 48.150635%)" offset="0.847656"/><stop stop-opacity="1" stop-color="rgb(8.158875%, 68.547058%, 47.912598%)" offset="0.851562"/><stop stop-opacity="1" stop-color="rgb(7.943726%, 68.713379%, 47.673035%)" offset="0.855469"/><stop stop-opacity="1" stop-color="rgb(7.730103%, 68.8797%, 47.434998%)" offset="0.859375"/><stop stop-opacity="1" stop-color="rgb(7.514954%, 69.046021%, 47.195435%)" offset="0.863281"/><stop stop-opacity="1" stop-color="rgb(7.301331%, 69.213867%, 46.957397%)" offset="0.867188"/><stop stop-opacity="1" stop-color="rgb(7.086182%, 69.380188%, 46.717834%)" offset="0.871094"/><stop stop-opacity="1" stop-color="rgb(6.872559%, 69.548035%, 46.479797%)" offset="0.875"/><stop stop-opacity="1" stop-color="rgb(6.65741%, 69.714355%, 46.240234%)" offset="0.878906"/><stop stop-opacity="1" stop-color="rgb(6.443787%, 69.882202%, 46.000671%)" offset="0.882812"/><stop stop-opacity="1" stop-color="rgb(6.228638%, 70.048523%, 45.761108%)" offset="0.886719"/><stop stop-opacity="1" stop-color="rgb(6.015015%, 70.21637%, 45.523071%)" offset="0.890625"/><stop stop-opacity="1" stop-color="rgb(5.799866%, 70.38269%, 45.283508%)" offset="0.894531"/><stop stop-opacity="1" stop-color="rgb(5.586243%, 70.549011%, 45.045471%)" offset="0.898438"/><stop stop-opacity="1" stop-color="rgb(5.371094%, 70.715332%, 44.805908%)" offset="0.902344"/><stop stop-opacity="1" stop-color="rgb(5.157471%, 70.883179%, 44.567871%)" offset="0.90625"/><stop stop-opacity="1" stop-color="rgb(4.942322%, 71.0495%, 44.328308%)" offset="0.910156"/><stop stop-opacity="1" stop-color="rgb(4.728699%, 71.217346%, 44.090271%)" offset="0.914062"/><stop stop-opacity="1" stop-color="rgb(4.51355%, 71.383667%, 43.850708%)" offset="0.917969"/><stop stop-opacity="1" stop-color="rgb(4.299927%, 71.551514%, 43.612671%)" offset="0.921875"/><stop stop-opacity="1" stop-color="rgb(4.084778%, 71.717834%, 43.373108%)" offset="0.925781"/><stop stop-opacity="1" stop-color="rgb(3.871155%, 71.884155%, 43.133545%)" offset="0.929688"/><stop stop-opacity="1" stop-color="rgb(3.656006%, 72.050476%, 42.893982%)" offset="0.933594"/><stop stop-opacity="1" stop-color="rgb(3.442383%, 72.218323%, 42.655945%)" offset="0.9375"/><stop stop-opacity="1" stop-color="rgb(3.227234%, 72.384644%, 42.416382%)" offset="0.941406"/><stop stop-opacity="1" stop-color="rgb(3.013611%, 72.55249%, 42.178345%)" offset="0.945312"/><stop stop-opacity="1" stop-color="rgb(2.798462%, 72.718811%, 41.938782%)" offset="0.949219"/><stop stop-opacity="1" stop-color="rgb(2.584839%, 72.886658%, 41.700745%)" offset="0.953125"/><stop stop-opacity="1" stop-color="rgb(2.36969%, 73.052979%, 41.461182%)" offset="0.957031"/><stop stop-opacity="1" stop-color="rgb(2.156067%, 73.220825%, 41.223145%)" offset="0.960938"/><stop stop-opacity="1" stop-color="rgb(1.940918%, 73.387146%, 40.983582%)" offset="0.964844"/><stop stop-opacity="1" stop-color="rgb(1.727295%, 73.553467%, 40.745544%)" offset="0.96875"/><stop stop-opacity="1" stop-color="rgb(1.512146%, 73.719788%, 40.505981%)" offset="0.972656"/><stop stop-opacity="1" stop-color="rgb(1.298523%, 73.887634%, 40.266418%)" offset="0.976562"/><stop stop-opacity="1" stop-color="rgb(1.083374%, 74.053955%, 40.026855%)" offset="0.980469"/><stop stop-opacity="1" stop-color="rgb(0.869751%, 74.221802%, 39.788818%)" offset="0.984375"/><stop stop-opacity="1" stop-color="rgb(0.654602%, 74.388123%, 39.549255%)" offset="0.988281"/><stop stop-opacity="1" stop-color="rgb(0.440979%, 74.555969%, 39.311218%)" offset="0.992188"/><stop stop-opacity="1" stop-color="rgb(0.22583%, 74.72229%, 39.071655%)" offset="0.996094"/><stop stop-opacity="1" stop-color="rgb(0.012207%, 74.888611%, 38.833618%)" offset="1"/></linearGradient><clipPath id="c7bbc905e1"><path d="M 185.261719 120.628906 L 248 120.628906 L 248 277.003906 L 185.261719 277.003906 Z M 185.261719 120.628906 " clip-rule="nonzero"/></clipPath><clipPath id="c696d601de"><path d="M 0.261719 0.628906 L 63 0.628906 L 63 157 L 0.261719 157 Z M 0.261719 0.628906 " clip-rule="nonzero"/></clipPath><clipPath id="5273f31cd0"><rect x="0" width="63" y="0" height="158"/></clipPath><clipPath id="8ae354ea74"><path d="M 76 172 L 269.605469 172 L 269.605469 180 L 76 180 Z M 76 172 " clip-rule="nonzero"/></clipPath><clipPath id="fc716cc714"><path d="M 45.503906 157 L 83 157 L 83 195 L 45.503906 195 Z M 45.503906 157 " clip-rule="nonzero"/></clipPath><clipPath id="9f33682873"><path d="M 131 97.101562 L 170 97.101562 L 170 135 L 131 135 Z M 131 97.101562 " clip-rule="nonzero"/></clipPath><clipPath id="2dac589e40"><path d="M 186 221 L 224 221 L 224 258.996094 L 186 258.996094 Z M 186 221 " clip-rule="nonzero"/></clipPath><clipPath id="528f5fcee0"><path d="M 117 193 L 269.605469 193 L 269.605469 244 L 117 244 Z M 117 193 " clip-rule="nonzero"/></clipPath><clipPath id="4a30c5d60e"><path d="M 162 112 L 269.605469 112 L 269.605469 161 L 162 161 Z M 162 112 " clip-rule="nonzero"/></clipPath><clipPath id="887f2640c2"><path d="M 524.3125 153 L 682.457031 153 L 682.457031 227 L 524.3125 227 Z M 524.3125 153 " clip-rule="nonzero"/></clipPath><clipPath id="96aa65f5ee"><path d="M 581 132.050781 L 625 132.050781 L 625 248 L 581 248 Z M 581 132.050781 " clip-rule="nonzero"/></clipPath></defs><g clip-path="url(#1f0a226409)"><path fill="#ffffff" d="M 0 0 L 763 0 L 763 381.5 L 0 381.5 Z M 0 0 " fill-opacity="1" fill-rule="nonzero"/></g><g clip-path="url(#dc866fe5fc)"><g clip-path="url(#4d6590ae23)"><g transform="matrix(1, 0, 0, 1, -0, 0)"><g clip-path="url(#e07aa1a056)"><g clip-path="url(#63a6783ddb)"><g clip-path="url(#7da4378969)"><path fill="#ffffff" d="M 0 0 L 761.914062 0 L 761.914062 380.957031 L 0 380.957031 Z M 0 0 " fill-opacity="1" fill-rule="nonzero"/></g></g></g></g></g></g><g clip-path="url(#26cd0c776d)"><g clip-path="url(#57ac42c482)"><path stroke-linecap="butt" transform="matrix(0.749509, 0, 0, 0.749509, 213.680213, 38.695132)" fill="none" stroke-linejoin="miter" d="M 671.157334 99.977136 L 671.157334 305.038436 C 671.157334 360.251657 626.39366 405.01533 571.175227 405.01533 L 100.043947 405.01533 C 44.825514 405.01533 0.0618403 360.251657 0.0618403 305.038436 L 0.0618403 99.977136 C 0.0618403 44.763915 44.825514 0.000241251 100.043947 0.000241251 L 571.175227 0.000241251 C 626.39366 0.000241251 671.157334 44.763915 671.157334 99.977136 Z M 671.157334 99.977136 " stroke="url(#2f3e95ce34)" stroke-width="46" stroke-miterlimit="4"/></g></g><g clip-path="url(#c7bbc905e1)"><g transform="matrix(1, 0, 0, 1, 185, 120)"><g clip-path="url(#5273f31cd0)"><g clip-path="url(#c696d601de)"><path fill="#ffffff" d="M 0.261719 0.628906 L 63 0.628906 L 63 156.984375 L 0.261719 156.984375 Z M 0.261719 0.628906 " fill-opacity="1" fill-rule="nonzero"/></g></g></g></g><g clip-path="url(#8ae354ea74)"><path fill="#1b1464" d="M 269.417969 176.140625 C 269.417969 177.890625 267.988281 179.320312 266.238281 179.320312 L 79.730469 179.320312 C 77.980469 179.320312 76.546875 177.890625 76.546875 176.140625 C 76.546875 174.390625 77.980469 172.957031 79.730469 172.957031 L 266.238281 172.957031 C 268.039062 172.957031 269.417969 174.390625 269.417969 176.140625 Z M 269.417969 176.140625 " fill-opacity="1" fill-rule="nonzero"/></g><g clip-path="url(#fc716cc714)"><path fill="#1b1464" d="M 82.914062 176.140625 C 82.914062 186.429688 74.53125 194.757812 64.292969 194.757812 C 54.058594 194.757812 45.675781 186.375 45.675781 176.140625 C 45.675781 165.902344 54.058594 157.519531 64.292969 157.519531 C 74.53125 157.519531 82.914062 165.902344 82.914062 176.140625 Z M 52.042969 176.140625 C 52.042969 182.929688 57.558594 188.394531 64.292969 188.394531 C 71.03125 188.394531 76.546875 182.875 76.546875 176.140625 C 76.546875 169.347656 71.03125 163.886719 64.292969 163.886719 C 57.558594 163.886719 52.042969 169.402344 52.042969 176.140625 Z M 52.042969 176.140625 " fill-opacity="1" fill-rule="nonzero"/></g><path fill="#1b1464" d="M 123.917969 237.195312 C 123.917969 247.484375 115.535156 255.8125 105.296875 255.8125 C 95.0625 255.8125 86.679688 247.433594 86.679688 237.195312 C 86.679688 226.957031 95.0625 218.574219 105.296875 218.574219 C 115.535156 218.574219 123.917969 226.957031 123.917969 237.195312 Z M 93.046875 237.195312 C 93.046875 243.984375 98.5625 249.449219 105.296875 249.449219 C 112.035156 249.449219 117.550781 243.929688 117.550781 237.195312 C 117.550781 230.457031 112.035156 224.941406 105.296875 224.941406 C 98.5625 224.941406 93.046875 230.457031 93.046875 237.195312 Z M 93.046875 237.195312 " fill-opacity="1" fill-rule="nonzero"/><g clip-path="url(#9f33682873)"><path fill="#1b1464" d="M 169.164062 115.613281 C 169.164062 125.90625 160.785156 134.234375 150.546875 134.234375 C 140.308594 134.234375 131.925781 125.851562 131.925781 115.613281 C 131.925781 105.378906 140.308594 96.996094 150.546875 96.996094 C 160.785156 96.996094 169.164062 105.378906 169.164062 115.613281 Z M 138.238281 115.613281 C 138.238281 122.40625 143.757812 127.867188 150.492188 127.867188 C 157.230469 127.867188 162.746094 122.351562 162.746094 115.613281 C 162.746094 108.824219 157.230469 103.363281 150.492188 103.363281 C 143.757812 103.363281 138.238281 108.878906 138.238281 115.613281 Z M 138.238281 115.613281 " fill-opacity="1" fill-rule="nonzero"/></g><g clip-path="url(#2dac589e40)"><path fill="#1b1464" d="M 223.800781 240.375 C 223.800781 250.667969 215.417969 258.996094 205.183594 258.996094 C 194.945312 258.996094 186.5625 250.613281 186.5625 240.375 C 186.5625 230.085938 194.945312 221.757812 205.183594 221.757812 C 215.417969 221.757812 223.800781 230.085938 223.800781 240.375 Z M 192.875 240.375 C 192.875 247.167969 198.390625 252.628906 205.128906 252.628906 C 211.917969 252.628906 217.382812 247.113281 217.382812 240.375 C 217.382812 233.640625 211.867188 228.125 205.128906 228.125 C 198.390625 228.070312 192.875 233.585938 192.875 240.375 Z M 192.875 240.375 " fill-opacity="1" fill-rule="nonzero"/></g><g clip-path="url(#528f5fcee0)"><path fill="#1b1464" d="M 269.417969 196.191406 C 269.417969 197.941406 267.988281 199.371094 266.238281 199.371094 L 256.53125 199.371094 L 256.53125 223.5625 C 256.53125 234.59375 247.566406 243.558594 236.53125 243.558594 L 220.566406 243.558594 C 218.816406 243.558594 217.382812 242.128906 217.382812 240.375 C 217.382812 238.625 218.816406 237.195312 220.566406 237.195312 L 236.585938 237.195312 C 244.117188 237.195312 250.21875 231.09375 250.21875 223.5625 L 250.21875 199.371094 L 168.476562 199.371094 C 162.957031 199.371094 158.449219 203.882812 158.449219 209.398438 L 158.449219 223.984375 C 158.449219 233.054688 151.078125 240.375 142.058594 240.375 L 120.789062 240.375 C 119.035156 240.375 117.605469 238.945312 117.605469 237.195312 C 117.605469 235.445312 119.035156 234.011719 120.789062 234.011719 L 142.058594 234.011719 C 147.574219 234.011719 152.085938 229.503906 152.085938 223.984375 L 152.085938 209.398438 C 152.085938 200.328125 159.457031 193.007812 168.476562 193.007812 L 266.238281 193.007812 C 268.039062 193.007812 269.417969 194.441406 269.417969 196.191406 Z M 269.417969 196.191406 " fill-opacity="1" fill-rule="nonzero"/></g><g clip-path="url(#4a30c5d60e)"><path fill="#1b1464" d="M 269.417969 157.253906 C 269.417969 159.003906 267.988281 160.4375 266.238281 160.4375 L 200.40625 160.4375 C 192.714844 160.4375 186.511719 154.179688 186.511719 146.539062 L 186.511719 126.328125 C 186.511719 122.191406 183.117188 118.796875 178.976562 118.796875 L 165.980469 118.796875 C 164.230469 118.796875 162.800781 117.367188 162.800781 115.613281 C 162.800781 113.863281 164.230469 112.433594 165.980469 112.433594 L 178.976562 112.433594 C 186.667969 112.433594 192.875 118.691406 192.875 126.328125 L 192.875 146.539062 C 192.875 150.675781 196.269531 154.074219 200.40625 154.074219 L 266.238281 154.074219 C 268.039062 154.074219 269.417969 155.503906 269.417969 157.253906 Z M 269.417969 157.253906 " fill-opacity="1" fill-rule="nonzero"/></g><g clip-path="url(#887f2640c2)"><path fill="#1b1464" d="M 526.570312 184.945312 L 555.203125 156.070312 C 555.871094 155.363281 556.652344 154.816406 557.546875 154.429688 C 558.441406 154.042969 559.375 153.847656 560.351562 153.84375 C 561.070312 153.847656 561.773438 153.957031 562.457031 154.171875 C 563.144531 154.386719 563.785156 154.699219 564.378906 155.101562 C 564.972656 155.507812 565.492188 155.988281 565.941406 156.550781 C 566.394531 157.109375 566.75 157.726562 567.019531 158.390625 C 567.285156 159.058594 567.449219 159.75 567.511719 160.46875 C 567.570312 161.183594 567.527344 161.894531 567.375 162.59375 C 567.226562 163.296875 566.976562 163.964844 566.628906 164.59375 C 566.277344 165.222656 565.847656 165.785156 565.328125 166.285156 L 541.734375 190.082031 L 565.328125 213.878906 C 565.847656 214.375 566.277344 214.941406 566.628906 215.570312 C 566.976562 216.199219 567.226562 216.863281 567.375 217.566406 C 567.527344 218.269531 567.570312 218.980469 567.511719 219.695312 C 567.449219 220.410156 567.285156 221.101562 567.019531 221.769531 C 566.75 222.4375 566.394531 223.050781 565.941406 223.613281 C 565.492188 224.171875 564.972656 224.65625 564.378906 225.058594 C 563.785156 225.464844 563.144531 225.773438 562.457031 225.988281 C 561.773438 226.203125 561.070312 226.3125 560.351562 226.316406 C 559.375 226.3125 558.441406 226.121094 557.546875 225.734375 C 556.652344 225.347656 555.871094 224.800781 555.203125 224.09375 L 526.570312 195.160156 C 525.894531 194.488281 525.375 193.710938 525.011719 192.832031 C 524.648438 191.949219 524.472656 191.035156 524.476562 190.082031 C 524.472656 189.121094 524.648438 188.195312 525.011719 187.304688 C 525.375 186.414062 525.894531 185.628906 526.570312 184.945312 Z M 651.335938 156.070312 C 650.667969 155.359375 649.886719 154.808594 648.992188 154.421875 C 648.097656 154.035156 647.164062 153.839844 646.1875 153.84375 C 645.714844 153.847656 645.246094 153.898438 644.785156 153.992188 C 644.324219 154.085938 643.875 154.226562 643.4375 154.410156 C 643.003906 154.59375 642.589844 154.820312 642.199219 155.085938 C 641.808594 155.351562 641.449219 155.652344 641.117188 155.988281 C 640.789062 156.324219 640.492188 156.691406 640.234375 157.085938 C 639.972656 157.480469 639.757812 157.898438 639.578125 158.335938 C 639.402344 158.773438 639.269531 159.222656 639.183594 159.6875 C 639.09375 160.152344 639.054688 160.621094 639.058594 161.089844 C 639.0625 162.066406 639.25 163 639.621094 163.898438 C 639.996094 164.796875 640.523438 165.59375 641.207031 166.285156 L 664.804688 190.082031 L 641.207031 213.878906 C 640.523438 214.570312 639.996094 215.363281 639.621094 216.261719 C 639.25 217.160156 639.0625 218.097656 639.058594 219.070312 C 639.054688 219.542969 639.09375 220.011719 639.183594 220.472656 C 639.269531 220.9375 639.402344 221.390625 639.578125 221.828125 C 639.757812 222.265625 639.972656 222.679688 640.234375 223.074219 C 640.492188 223.472656 640.789062 223.835938 641.117188 224.171875 C 641.449219 224.511719 641.808594 224.8125 642.199219 225.078125 C 642.589844 225.339844 643.003906 225.566406 643.4375 225.75 C 643.875 225.933594 644.324219 226.074219 644.785156 226.167969 C 645.246094 226.265625 645.714844 226.3125 646.1875 226.316406 C 647.164062 226.320312 648.097656 226.128906 648.992188 225.742188 C 649.886719 225.355469 650.667969 224.804688 651.335938 224.09375 L 680.023438 195.160156 C 680.699219 194.488281 681.21875 193.710938 681.582031 192.832031 C 681.945312 191.949219 682.121094 191.035156 682.117188 190.082031 C 682.125 189.121094 681.945312 188.195312 681.582031 187.304688 C 681.21875 186.414062 680.699219 185.628906 680.023438 184.945312 Z M 651.335938 156.070312 " fill-opacity="1" fill-rule="nonzero"/></g><g clip-path="url(#96aa65f5ee)"><path fill="#1b1464" d="M 595.828125 242.636719 L 624.515625 141.460938 C 624.738281 140.734375 624.851562 139.992188 624.855469 139.234375 C 624.859375 138.796875 624.824219 138.363281 624.75 137.933594 C 624.675781 137.5 624.5625 137.078125 624.410156 136.667969 C 624.257812 136.257812 624.070312 135.867188 623.847656 135.488281 C 623.625 135.113281 623.367188 134.761719 623.078125 134.429688 C 622.789062 134.101562 622.472656 133.800781 622.128906 133.53125 C 621.789062 133.257812 621.421875 133.023438 621.035156 132.816406 C 620.648438 132.613281 620.246094 132.445312 619.828125 132.316406 C 619.410156 132.183594 618.984375 132.09375 618.550781 132.039062 C 618.113281 131.988281 617.679688 131.976562 617.242188 132 C 616.804688 132.027344 616.375 132.097656 615.949219 132.203125 C 615.527344 132.308594 615.113281 132.453125 614.714844 132.632812 C 614.316406 132.816406 613.9375 133.03125 613.582031 133.28125 C 613.222656 133.53125 612.890625 133.8125 612.582031 134.125 C 612.273438 134.4375 612 134.773438 611.753906 135.136719 C 611.507812 135.5 611.296875 135.882812 611.121094 136.28125 C 610.945312 136.683594 610.808594 137.097656 610.710938 137.523438 L 582.078125 238.699219 C 581.898438 239.355469 581.800781 240.019531 581.796875 240.699219 C 581.792969 241.480469 581.914062 242.242188 582.160156 242.980469 C 582.402344 243.722656 582.761719 244.40625 583.234375 245.03125 C 583.703125 245.652344 584.261719 246.183594 584.90625 246.625 C 585.550781 247.066406 586.25 247.390625 587 247.601562 C 587.648438 247.785156 588.308594 247.882812 588.980469 247.886719 C 589.761719 247.886719 590.519531 247.761719 591.257812 247.511719 C 591.996094 247.261719 592.675781 246.898438 593.296875 246.425781 C 593.914062 245.949219 594.441406 245.390625 594.875 244.742188 C 595.308594 244.09375 595.625 243.390625 595.828125 242.636719 Z M 595.828125 242.636719 " fill-opacity="1" fill-rule="evenodd"/></g><g fill="#002e62" fill-opacity="1"><g transform="translate(302.715467, 235.074011)"><g><path d="M 28.9375 -72.078125 L 0.5 -72.078125 L 0.5 -88.828125 L 77.921875 -88.828125 L 77.921875 -72.078125 L 49.5 -72.078125 L 49.5 0 L 28.9375 0 Z M 28.9375 -72.078125 "/></g></g></g><g fill="#002e62" fill-opacity="1"><g transform="translate(379.610464, 235.074011)"><g><path d="M 9.140625 -68.28125 L 28.9375 -68.28125 L 28.9375 0 L 9.140625 0 Z M 19.03125 -77.796875 C 15.394531 -77.796875 12.4375 -78.851562 10.15625 -80.96875 C 7.875 -83.082031 6.734375 -85.703125 6.734375 -88.828125 C 6.734375 -91.960938 7.875 -94.585938 10.15625 -96.703125 C 12.4375 -98.816406 15.394531 -99.875 19.03125 -99.875 C 22.675781 -99.875 25.640625 -98.859375 27.921875 -96.828125 C 30.203125 -94.796875 31.34375 -92.257812 31.34375 -89.21875 C 31.34375 -85.914062 30.203125 -83.1875 27.921875 -81.03125 C 25.640625 -78.875 22.675781 -77.796875 19.03125 -77.796875 Z M 19.03125 -77.796875 "/></g></g></g><g fill="#002e62" fill-opacity="1"><g transform="translate(417.804241, 235.074011)"><g><path d="M 75.765625 -46.1875 C 80.835938 -44.582031 84.8125 -41.894531 87.6875 -38.125 C 90.5625 -34.363281 92 -29.734375 92 -24.234375 C 92 -16.453125 88.972656 -10.46875 82.921875 -6.28125 C 76.878906 -2.09375 68.0625 0 56.46875 0 L 10.53125 0 L 10.53125 -88.828125 L 53.9375 -88.828125 C 64.757812 -88.828125 73.066406 -86.753906 78.859375 -82.609375 C 84.660156 -78.460938 87.5625 -72.835938 87.5625 -65.734375 C 87.5625 -61.421875 86.523438 -57.570312 84.453125 -54.1875 C 82.378906 -50.800781 79.484375 -48.132812 75.765625 -46.1875 Z M 30.96875 -73.359375 L 30.96875 -52.40625 L 51.390625 -52.40625 C 56.472656 -52.40625 60.320312 -53.296875 62.9375 -55.078125 C 65.5625 -56.859375 66.875 -59.484375 66.875 -62.953125 C 66.875 -66.421875 65.5625 -69.019531 62.9375 -70.75 C 60.320312 -72.488281 56.472656 -73.359375 51.390625 -73.359375 Z M 54.953125 -15.484375 C 60.367188 -15.484375 64.453125 -16.367188 67.203125 -18.140625 C 69.953125 -19.921875 71.328125 -22.671875 71.328125 -26.390625 C 71.328125 -33.753906 65.867188 -37.4375 54.953125 -37.4375 L 30.96875 -37.4375 L 30.96875 -15.484375 Z M 54.953125 -15.484375 "/></g></g></g></svg>